<svg xmlns="http://www.w3.org/2000/svg" width="1080" height="1920" viewBox="0 0 1080 1920"><defs><radialGradient id="g" cx="48%" cy="48%" r="75%"><stop offset="0" stop-color="#182f40"/><stop offset=".6" stop-color="#0b1724"/><stop offset="1" stop-color="#030710"/></radialGradient></defs><rect width="1080" height="1920" fill="url(#g)"/><g><polyline points="960.92,596.76 819.02,506.11 596.61,460.22 479.72,525.71" fill="none" stroke="#92bfce" opacity="0.24" stroke-width="3" stroke-linecap="round" stroke-linejoin="round"/>
<polyline points="960.92,596.76 1127.43,760.78 1277.24,822.10" fill="none" stroke="#92bfce" opacity="0.24" stroke-width="3" stroke-linecap="round" stroke-linejoin="round"/>
<polyline points="1277.24,822.10 1571.87,928.89 1861.82,1045.20 1928.54,1149.23" fill="none" stroke="#92bfce" opacity="0.24" stroke-width="3" stroke-linecap="round" stroke-linejoin="round"/>
<polyline points="479.72,525.71 379.32,642.99 223.65,698.08 108.38,768.79" fill="none" stroke="#92bfce" opacity="0.24" stroke-width="3" stroke-linecap="round" stroke-linejoin="round"/>
<polyline points="1791.48,929.25 1121.30,811.56 536.75,722.40 299.27,713.77 133.51,734.98" fill="none" stroke="#92bfce" opacity="0.24" stroke-width="3" stroke-linecap="round" stroke-linejoin="round"/>
<polyline points="1097.54,1132.00 693.35,1036.25 407.49,956.08" fill="none" stroke="#92bfce" opacity="0.24" stroke-width="3" stroke-linecap="round" stroke-linejoin="round"/>
<polyline points="1101.39,1016.72 1102.05,1004.40 1103.22,992.21 1104.90,980.16 1107.09,968.29 1109.77,956.63 1112.95,945.20 1116.62,934.03 1120.77,923.15 1125.40,912.59 1130.50,902.38 1136.06,892.54 1142.07,883.11 1148.52,874.10 1155.39,865.55 1162.66,857.48 1170.34,849.91 1178.39,842.87 1186.80,836.37 1195.55,830.46 1204.62,825.13 1213.99,820.43 1223.64,816.35 1233.54,812.92 1243.67,810.17 1254.00,808.09 1264.51,806.70 1275.16,806.02 1285.93,806.05 1296.78,806.81 1307.70,808.28 1318.63,810.49 1329.56,813.42 1340.44,817.09 1351.25,821.47 1361.95,826.57 1372.50,832.38 1382.87,838.88 1393.04,846.06 1402.95,853.90 1412.59,862.39 1421.91,871.49 1430.88,881.19 1439.47,891.46 1447.66,902.26 1455.41,913.57 1462.69,925.35 1469.47,937.56 1475.74,950.16 1481.47,963.12 1486.63,976.38 1491.21,989.91 1495.20,1003.66 1498.57,1017.59 1501.31,1031.64 1503.42,1045.77 1504.89,1059.93 1505.71,1074.08 1505.88,1088.16 1505.41,1102.12" fill="none" stroke="#8dd4dd" opacity="0.24" stroke-width="3.4" stroke-linecap="round" stroke-linejoin="round"/>
<polyline points="223.92,831.22 223.88,822.27 224.11,813.39 224.59,804.60 225.34,795.93 226.35,787.38 227.62,779.00 229.14,770.79 230.92,762.78 232.95,754.99 235.22,747.45 237.73,740.17 240.48,733.17 243.45,726.47 246.65,720.09 250.07,714.06 253.69,708.38 257.52,703.08 261.53,698.17 265.73,693.66 270.09,689.58 274.62,685.94 279.30,682.74 284.11,680.01 289.04,677.75 294.09,675.97 299.24,674.68 304.47,673.89 309.76,673.60 315.12,673.82 320.51,674.55 325.92,675.79 331.35,677.55 336.76,679.81 342.15,682.58 347.50,685.86 352.79,689.62 358.01,693.88 363.14,698.61 368.16,703.81 373.06,709.45 377.82,715.54 382.43,722.04 386.87,728.94 391.12,736.23 395.18,743.87 399.02,751.85 402.64,760.14 406.02,768.71 409.15,777.55 412.02,786.62 414.63,795.89 416.95,805.33 419.00,814.92 420.74,824.62 422.19,834.41 423.34,844.24 424.18,854.09 424.71,863.93 424.94,873.72" fill="none" stroke="#8dd4dd" opacity="0.24" stroke-width="3.4" stroke-linecap="round" stroke-linejoin="round"/>
<polyline points="192.89,646.16 63.35,535.10 -130.42,478.39 -225.60,553.88" fill="none" stroke="#92bfce" opacity="0.7" stroke-width="3" stroke-linecap="round" stroke-linejoin="round"/>
<polyline points="192.89,646.16 350.52,849.15 491.33,929.67" fill="none" stroke="#92bfce" opacity="0.7" stroke-width="3" stroke-linecap="round" stroke-linejoin="round"/>
<polyline points="491.33,929.67 776.19,1075.66 1068.61,1239.58 1140.59,1377.01" fill="none" stroke="#92bfce" opacity="0.7" stroke-width="3" stroke-linecap="round" stroke-linejoin="round"/>
<polyline points="-225.60,553.88 -303.05,688.29 -427.02,747.83 -515.58,824.97" fill="none" stroke="#92bfce" opacity="0.7" stroke-width="3" stroke-linecap="round" stroke-linejoin="round"/>
<polyline points="993.06,1087.88 347.21,910.55 -168.31,784.56 -365.04,767.83 -497.32,787.39" fill="none" stroke="#92bfce" opacity="0.7" stroke-width="3" stroke-linecap="round" stroke-linejoin="round"/>
<polyline points="339.98,1296.30 -20.49,1158.09 -264.55,1050.43" fill="none" stroke="#92bfce" opacity="0.7" stroke-width="3" stroke-linecap="round" stroke-linejoin="round"/>
<polyline points="338.30,1157.70 338.36,1142.88 338.87,1128.24 339.86,1113.79 341.31,1099.57 343.22,1085.62 345.60,1071.97 348.44,1058.65 351.73,1045.70 355.48,1033.14 359.67,1021.02 364.30,1009.36 369.36,998.20 374.85,987.57 380.75,977.49 387.05,968.00 393.75,959.13 400.82,950.91 408.26,943.36 416.05,936.52 424.17,930.40 432.61,925.04 441.34,920.45 450.35,916.66 459.61,913.69 469.10,911.56 478.81,910.28 488.69,909.87 498.73,910.34 508.89,911.69 519.16,913.95 529.50,917.10 539.87,921.15 550.25,926.11 560.61,931.96 570.91,938.69 581.12,946.30 591.21,954.77 601.13,964.09 610.87,974.22 620.37,985.15 629.62,996.85 638.57,1009.28 647.20,1022.40 655.47,1036.19 663.35,1050.59 670.80,1065.56 677.81,1081.05 684.35,1097.02 690.38,1113.40 695.90,1130.14 700.87,1147.19 705.27,1164.49 709.09,1181.96 712.32,1199.56 714.94,1217.22 716.95,1234.88 718.33,1252.47 719.09,1269.94 719.22,1287.21" fill="none" stroke="#8dd4dd" opacity="0.7" stroke-width="3.4" stroke-linecap="round" stroke-linejoin="round"/>
<polyline points="-420.19,899.79 -420.66,889.59 -420.92,879.47 -420.97,869.47 -420.79,859.60 -420.41,849.88 -419.80,840.35 -418.98,831.04 -417.95,821.95 -416.70,813.12 -415.25,804.57 -413.58,796.32 -411.71,788.40 -409.64,780.83 -407.38,773.62 -404.92,766.81 -402.27,760.41 -399.44,754.44 -396.44,748.92 -393.26,743.87 -389.93,739.31 -386.44,735.24 -382.80,731.70 -379.03,728.68 -375.14,726.21 -371.12,724.29 -367.00,722.93 -362.79,722.15 -358.48,721.95 -354.11,722.33 -349.68,723.31 -345.20,724.87 -340.68,727.02 -336.14,729.77 -331.60,733.10 -327.06,737.00 -322.53,741.48 -318.05,746.53 -313.61,752.12 -309.23,758.25 -304.93,764.90 -300.72,772.05 -296.61,779.69 -292.62,787.78 -288.76,796.32 -285.05,805.27 -281.49,814.60 -278.10,824.29 -274.90,834.30 -271.88,844.61 -269.07,855.19 -266.46,865.99 -264.08,876.98 -261.93,888.13 -260.01,899.40 -258.33,910.75 -256.91,922.15 -255.73,933.56 -254.82,944.94 -254.16,956.25" fill="none" stroke="#8dd4dd" opacity="0.7" stroke-width="3.4" stroke-linecap="round" stroke-linejoin="round"/>
<polyline points="350.46,1178.56 350.51,1167.55 350.90,1156.66 351.63,1145.93 352.70,1135.38 354.11,1125.04 355.86,1114.93 357.95,1105.07 360.37,1095.50 363.12,1086.23 366.19,1077.29 369.58,1068.70 373.28,1060.48 377.29,1052.66 381.59,1045.27 386.18,1038.31 391.05,1031.81 396.19,1025.80 401.59,1020.29 407.23,1015.29 413.11,1010.83 419.21,1006.92 425.51,1003.58 432.01,1000.83 438.68,998.66 445.51,997.10 452.48,996.15 459.57,995.83 466.77,996.13 474.06,997.07 481.41,998.65 488.81,1000.86 496.23,1003.71 503.65,1007.19 511.06,1011.31 518.43,1016.05 525.74,1021.40 532.96,1027.35 540.07,1033.90 547.06,1041.02 553.89,1048.70 560.55,1056.91 567.01,1065.64 573.26,1074.86 579.26,1084.54 585.01,1094.67 590.48,1105.20 595.66,1116.10 600.52,1127.35 605.05,1138.91 609.23,1150.74 613.05,1162.80 616.50,1175.06 619.56,1187.48 622.22,1200.01 624.48,1212.63 626.33,1225.27 627.75,1237.92 628.76,1250.51 629.33,1263.03 629.48,1275.41 629.20,1287.63 628.49,1299.64 627.37,1311.40 625.82,1322.89 623.87,1334.06 621.51,1344.89 618.76,1355.32 615.63,1365.35 612.12,1374.93 608.26,1384.05 604.06,1392.66 599.53,1400.76 594.69,1408.32 589.55,1415.33 584.13,1421.75 578.46,1427.59 572.55,1432.82 566.41,1437.44 560.08,1441.44 553.56,1444.81 546.89,1447.55 540.07,1449.65 533.14,1451.12 526.10,1451.95 518.99,1452.16 511.82,1451.74 504.61,1450.70 497.39,1449.05 490.16,1446.80 482.96,1443.97 475.79,1440.55 468.68,1436.58 461.65,1432.05 454.71,1427.00 447.88,1421.43 441.18,1415.37 434.62,1408.83 428.22,1401.83 421.99,1394.39 415.94,1386.54 410.10,1378.29 404.46,1369.68 399.05,1360.71 393.88,1351.42 388.96,1341.82 384.29,1331.95 379.89,1321.82 375.77,1311.47 371.94,1300.91 368.40,1290.17 365.15,1279.28 362.22,1268.26 359.60,1257.13 357.30,1245.93 355.33,1234.68 353.69,1223.40 352.37,1212.13 351.40,1200.88 350.76,1189.68 350.46,1178.56" fill="none" stroke="#75e9df" opacity="0.4" stroke-width="3.3" stroke-linecap="round" stroke-linejoin="round"/>
<polyline points="358.54,1181.37 358.59,1171.03 358.96,1160.82 359.65,1150.75 360.67,1140.85 362.00,1131.16 363.66,1121.68 365.63,1112.44 367.91,1103.47 370.50,1094.79 373.39,1086.41 376.59,1078.38 380.07,1070.69 383.84,1063.39 387.89,1056.47 392.21,1049.98 396.79,1043.92 401.62,1038.32 406.69,1033.18 411.98,1028.54 417.50,1024.40 423.22,1020.77 429.13,1017.69 435.22,1015.14 441.47,1013.16 447.87,1011.74 454.40,1010.89 461.04,1010.63 467.77,1010.96 474.59,1011.87 481.46,1013.39 488.37,1015.50 495.31,1018.20 502.24,1021.49 509.16,1025.37 516.03,1029.83 522.85,1034.87 529.58,1040.46 536.21,1046.60 542.72,1053.27 549.09,1060.46 555.29,1068.15 561.30,1076.31 567.12,1084.93 572.71,1093.98 578.06,1103.43 583.15,1113.26 587.97,1123.44 592.49,1133.93 596.70,1144.71 600.59,1155.74 604.15,1166.99 607.35,1178.41 610.20,1189.99 612.68,1201.67 614.78,1213.42 616.50,1225.21 617.83,1236.99 618.77,1248.73 619.31,1260.39 619.45,1271.93 619.20,1283.32 618.55,1294.52 617.51,1305.49 616.08,1316.21 614.27,1326.63 612.09,1336.73 609.54,1346.48 606.64,1355.84 603.38,1364.80 599.80,1373.32 595.90,1381.38 591.69,1388.97 587.18,1396.05 582.41,1402.61 577.37,1408.65 572.09,1414.13 566.58,1419.05 560.86,1423.40 554.96,1427.17 548.89,1430.36 542.66,1432.96 536.30,1434.97 529.83,1436.38 523.26,1437.20 516.61,1437.43 509.91,1437.08 503.17,1436.15 496.41,1434.65 489.65,1432.59 482.91,1429.97 476.20,1426.81 469.54,1423.12 462.95,1418.92 456.45,1414.22 450.04,1409.03 443.75,1403.38 437.60,1397.27 431.59,1390.74 425.74,1383.79 420.06,1376.44 414.57,1368.73 409.28,1360.66 404.20,1352.27 399.34,1343.56 394.71,1334.57 390.32,1325.32 386.19,1315.82 382.31,1306.11 378.71,1296.20 375.38,1286.13 372.33,1275.90 369.57,1265.56 367.11,1255.12 364.95,1244.61 363.10,1234.04 361.55,1223.46 360.32,1212.87 359.41,1202.31 358.82,1191.80 358.54,1181.37" fill="none" stroke="#75e9df" opacity="0.4" stroke-width="3.3" stroke-linecap="round" stroke-linejoin="round"/></g><text x="75" y="156" fill="#cee9e9" font-size="29" font-family="Arial" letter-spacing="6">CINEMA / LOOKDEV</text><text x="75" y="221" fill="#8aafbc" font-size="27" font-family="Arial" letter-spacing="3">01 / GHOST CONTEXT</text><text x="75" y="279" fill="#587f8b" font-size="20" font-family="Arial">FRAME 48 / 750 · 33.5° FOV</text><line x1="75" y1="1745" x2="1005" y2="1745" stroke="#44647a" stroke-width="2"/><line x1="75" y1="1745" x2="134.59946595460613" y2="1745" stroke="#8ee4d9" stroke-width="4"/><text x="75" y="1810" fill="#adc5ca" font-size="22" font-family="Arial">CPU VECTOR STUDY · PLACEHOLDER 3D PROJECTION</text><text x="75" y="1852" fill="#668994" font-size="19" font-family="Arial">NOT NATIVE REMOTION / NOT FINAL HARDWARE QA</text></svg>